# xmcd CD database file
#
# Track frame offsets:
#	150
#	11896
#	25206
#	42351
#	59467
#	77610
#	90694
#	111018
#	129438
#	152530
#	168864
#	180329
#
# Disc length: 2581 seconds
#
# Revision: 0
# Processed by: cddbd v1.5.2PL0 Copyright (c) Steve Scherf et al.
# Submitted via: CDex 1.51
#
DISCID=890a130c
DTITLE=Larry Scott Chapman - Once in a Blue Moon
DYEAR=2006
DGENRE=Country
TTITLE0=Not Ashamed
TTITLE1=Devil's Train
TTITLE2=Tennessee Trooper
TTITLE3=Thank You Father
TTITLE4=I Still Think of You Sometimes
TTITLE5=You Don't Want to Know
TTITLE6=After the Show
TTITLE7=It Ain't Over Yet
TTITLE8=Out on This Highway
TTITLE9=Packin' It In
TTITLE10=Never Write a Song About You
TTITLE11=I Don't Think She Likes Me Anymore
EXTD=YEAR: 2006
EXTT0=
EXTT1=
EXTT2=
EXTT3=
EXTT4=
EXTT5=
EXTT6=
EXTT7=
EXTT8=
EXTT9=
EXTT10=
EXTT11=
PLAYORDER=
